<?xml version="1.0" encoding="utf-8"?>
<!-- Generator: Adobe Illustrator 17.1.0, SVG Export Plug-In . SVG Version: 6.00 Build 0)  -->
<!DOCTYPE svg PUBLIC "-//W3C//DTD SVG 1.1//EN" "http://www.w3.org/Graphics/SVG/1.1/DTD/svg11.dtd">
<svg version="1.1" id="Layer_1" xmlns="http://www.w3.org/2000/svg" xmlns:xlink="http://www.w3.org/1999/xlink" x="0px" y="0px"
	 width="64px" height="64px" viewBox="0 0 64 64" enable-background="new 0 0 64 64" xml:space="preserve">
<path id="REPEAT_1_2_" fill-rule="evenodd" clip-rule="evenodd" fill="#AB1F24" d="M61,23H48c-1.7,0-3-1.3-3-3c0-1.7,1.3-3,3-3h5.2
	C48.5,10.3,40.8,6,32,6C17.6,6,6,17.6,6,32c0,14.4,11.6,26,26,26c14.4,0,26-11.6,26-26c0-1.7,1.3-3,3-3c1.7,0,3,1.3,3,3
	c0,17.7-14.3,32-32,32C14.3,64,0,49.7,0,32S14.3,0,32,0c10.7,0,20.2,5.3,26,13.4V8c0-1.7,1.3-3,3-3c1.7,0,3,1.3,3,3v12
	C64,21.7,62.7,23,61,23z"/>
</svg>
